<svg width="71" height="71" viewBox="0 0 71 71" fill="none" xmlns="http://www.w3.org/2000/svg">
<path d="M35.5 3.69791C36.7254 3.69791 37.7187 4.69127 37.7187 5.91666V8.87499C37.7187 10.1004 36.7254 11.0937 35.5 11.0937C34.2746 11.0937 33.2812 10.1004 33.2812 8.87499V5.91666C33.2812 4.69127 34.2746 3.69791 35.5 3.69791Z" fill="white"/>
<path fill-rule="evenodd" clip-rule="evenodd" d="M18.4896 35.5C18.4896 26.1054 26.1054 18.4896 35.5 18.4896C44.8946 18.4896 52.5104 26.1054 52.5104 35.5C52.5104 44.8946 44.8946 52.5104 35.5 52.5104C26.1054 52.5104 18.4896 44.8946 18.4896 35.5ZM35.5 22.9271C28.5562 22.9271 22.9271 28.5562 22.9271 35.5C22.9271 42.4438 28.5562 48.0729 35.5 48.0729C42.4438 48.0729 48.0729 42.4438 48.0729 35.5C48.0729 28.5562 42.4438 22.9271 35.5 22.9271Z" fill="white"/>
<path d="M16.1504 13.0126C15.2839 12.1461 13.879 12.1461 13.0126 13.0126C12.1461 13.8791 12.1461 15.2839 13.0126 16.1504L15.1044 18.2422C15.9709 19.1087 17.3757 19.1087 18.2422 18.2422C19.1087 17.3758 19.1087 15.9709 18.2422 15.1044L16.1504 13.0126Z" fill="white"/>
<path d="M67.3021 35.5C67.3021 36.7254 66.3087 37.7187 65.0833 37.7187H62.125C60.8996 37.7187 59.9062 36.7254 59.9062 35.5C59.9062 34.2746 60.8996 33.2812 62.125 33.2812H65.0833C66.3087 33.2812 67.3021 34.2746 67.3021 35.5Z" fill="white"/>
<path d="M57.9874 16.1503C58.8539 15.2839 58.8539 13.879 57.9874 13.0126C57.1209 12.1461 55.7161 12.1461 54.8496 13.0126L52.7578 15.1044C51.8913 15.9709 51.8913 17.3757 52.7578 18.2422C53.6242 19.1087 55.0291 19.1087 55.8955 18.2422L57.9874 16.1503Z" fill="white"/>
<path d="M35.5 59.9062C36.7254 59.9062 37.7187 60.8996 37.7187 62.125V65.0833C37.7187 66.3087 36.7254 67.3021 35.5 67.3021C34.2746 67.3021 33.2812 66.3087 33.2812 65.0833V62.125C33.2812 60.8996 34.2746 59.9062 35.5 59.9062Z" fill="white"/>
<path d="M55.8957 52.7578C55.0293 51.8913 53.6244 51.8913 52.758 52.7578C51.8915 53.6243 51.8915 55.0291 52.758 55.8956L54.8498 57.9874C55.7163 58.8539 57.1211 58.8539 57.9876 57.9874C58.8541 57.121 58.8541 55.7161 57.9876 54.8496L55.8957 52.7578Z" fill="white"/>
<path d="M11.0937 35.5C11.0937 36.7254 10.1004 37.7187 8.875 37.7187H5.91667C4.69128 37.7187 3.69792 36.7254 3.69792 35.5C3.69792 34.2746 4.69128 33.2812 5.91667 33.2812H8.875C10.1004 33.2812 11.0937 34.2746 11.0937 35.5Z" fill="white"/>
<path d="M18.242 55.8955C19.1085 55.0291 19.1085 53.6242 18.242 52.7578C17.3755 51.8913 15.9707 51.8913 15.1042 52.7578L13.0124 54.8496C12.1459 55.7161 12.1459 57.1209 13.0124 57.9874C13.8789 58.8539 15.2837 58.8539 16.1502 57.9874L18.242 55.8955Z" fill="white"/>
</svg>
