<svg width="77" height="77" viewBox="0 0 77 77" fill="none" xmlns="http://www.w3.org/2000/svg">
<path d="M0 38.4829C0 45.4611 1.71035 51.9263 5.16526 57.8099C8.62017 63.6935 13.2723 68.414 19.1901 71.8347C25.108 75.2554 31.5389 77 38.5171 77C45.4953 77 51.9263 75.2896 57.8441 71.8347C63.7619 68.3798 68.414 63.7277 71.8347 57.8099C75.2554 51.892 77 45.4611 77 38.4829C77 31.5047 75.2896 25.0737 71.8347 19.1559C68.3798 13.2381 63.7277 8.58596 57.8441 5.16526C51.9605 1.74456 45.4953 0 38.5171 0C31.5389 0 25.108 1.74456 19.1901 5.16526C13.2723 8.58596 8.58596 13.2723 5.16526 19.1559C1.74456 25.0395 0 31.5047 0 38.4829Z" fill="#48484A"/>
</svg>
