<svg width="40" height="40" viewBox="0 0 40 40" fill="none" xmlns="http://www.w3.org/2000/svg">
<g clip-path="url(#clip0_3_1619)">
<path d="M17.4999 20C18.6606 19.9999 19.8098 20.2307 20.8804 20.679C21.9511 21.1273 22.9218 21.7841 23.7362 22.6112C24.5505 23.4384 25.1921 24.4193 25.6237 25.4968C26.0553 26.5743 26.2681 27.7269 26.2499 28.8875C26.2469 29.0797 26.2883 29.2699 26.3709 29.4434C26.4534 29.617 26.5749 29.7692 26.7258 29.8882C26.8767 30.0072 27.053 30.0897 27.241 30.1295C27.429 30.1693 27.6237 30.1652 27.8099 30.1175C28.3642 29.9755 28.9436 29.962 29.504 30.0779C30.0644 30.1939 30.5908 30.4364 31.0432 30.7868C31.4956 31.1372 31.862 31.5863 32.1145 32.0998C32.3669 32.6133 32.4987 33.1778 32.4999 33.75C32.4999 34.7446 32.1048 35.6984 31.4015 36.4016C30.6983 37.1049 29.7444 37.5 28.7499 37.5H7.49987C6.83513 37.4962 6.1778 37.36 5.56635 37.0991C4.9549 36.8383 4.4016 36.4582 3.9388 35.981C3.47601 35.5038 3.11302 34.9391 2.87107 34.3199C2.62911 33.7008 2.51305 33.0396 2.52967 32.3751C2.5463 31.7105 2.69527 31.0559 2.96787 30.4497C3.24048 29.8434 3.63124 29.2975 4.11732 28.8441C4.60339 28.3906 5.175 28.0386 5.79873 27.8087C6.42246 27.5787 7.08577 27.4755 7.74987 27.505C8.03793 27.5198 8.32225 27.4346 8.55463 27.2637C8.78701 27.0928 8.95314 26.8469 9.02487 26.5675C9.50979 24.6883 10.6054 23.0235 12.1394 21.8347C13.6735 20.6459 15.5591 20.0005 17.4999 20ZM28.6824 27.5C28.4011 24.9653 27.267 22.6015 25.466 20.7959C23.665 18.9904 21.304 17.8503 18.7701 17.5626C16.2362 17.2749 13.6797 17.8567 11.5198 19.2126C9.35984 20.5684 7.72469 22.6179 6.88237 25.025C4.95222 25.183 3.158 26.0814 1.87528 27.5323C0.592562 28.9832 -0.079213 30.874 0.000575861 32.809C0.0803647 34.744 0.905532 36.5731 2.30335 37.9134C3.70117 39.2538 5.56327 40.0015 7.49987 40H28.7499C30.4075 40 31.9972 39.3415 33.1693 38.1694C34.3414 36.9973 34.9999 35.4076 34.9999 33.75C34.9999 32.0924 34.3414 30.5027 33.1693 29.3306C31.9972 28.1585 30.4075 27.5 28.7499 27.5H28.6824Z" fill="white"/>
<path d="M26.25 3.75C26.25 3.41848 26.1183 3.10054 25.8839 2.86612C25.6495 2.6317 25.3315 2.5 25 2.5C24.6685 2.5 24.3506 2.6317 24.1161 2.86612C23.8817 3.10054 23.75 3.41848 23.75 3.75V6.25C23.75 6.58152 23.8817 6.89946 24.1161 7.13388C24.3506 7.3683 24.6685 7.5 25 7.5C25.3315 7.5 25.6495 7.3683 25.8839 7.13388C26.1183 6.89946 26.25 6.58152 26.25 6.25V3.75ZM35.6075 8.66C35.7269 8.54469 35.8221 8.40676 35.8876 8.25426C35.9532 8.10175 35.9876 7.93773 35.9891 7.77175C35.9905 7.60578 35.9589 7.44118 35.896 7.28756C35.8332 7.13394 35.7404 6.99437 35.623 6.87701C35.5056 6.75964 35.3661 6.66682 35.2125 6.60397C35.0588 6.54112 34.8942 6.50949 34.7283 6.51094C34.5623 6.51238 34.3983 6.54686 34.2458 6.61237C34.0933 6.67788 33.9553 6.77311 33.84 6.8925L32.07 8.66C31.8353 8.89472 31.7034 9.21306 31.7034 9.545C31.7034 9.87694 31.8353 10.1953 32.07 10.43C32.3047 10.6647 32.6231 10.7966 32.955 10.7966C33.287 10.7966 33.6053 10.6647 33.84 10.43L35.6075 8.66ZM16.16 6.8925C15.9243 6.6648 15.6085 6.53881 15.2808 6.54166C14.953 6.54451 14.6395 6.67597 14.4077 6.90773C14.176 7.13949 14.0445 7.453 14.0417 7.78075C14.0388 8.10849 14.1648 8.42425 14.3925 8.66L16.16 10.43C16.2762 10.5462 16.4142 10.6384 16.5661 10.7013C16.7179 10.7642 16.8807 10.7966 17.045 10.7966C17.2094 10.7966 17.3721 10.7642 17.524 10.7013C17.6758 10.6384 17.8138 10.5462 17.93 10.43C18.0462 10.3138 18.1384 10.1758 18.2013 10.024C18.2642 9.87211 18.2966 9.70936 18.2966 9.545C18.2966 9.38064 18.2642 9.21789 18.2013 9.06604C18.1384 8.91419 18.0462 8.77622 17.93 8.66L16.16 6.8925ZM20.495 15.3275C20.8057 14.6836 21.2509 14.1138 21.8006 13.6566C22.3502 13.1994 22.9915 12.8653 23.6812 12.677C24.3709 12.4887 25.093 12.4505 25.7987 12.565C26.5044 12.6795 27.1774 12.944 27.7722 13.3406C28.367 13.7373 28.8699 14.2569 29.2468 14.8644C29.6237 15.4719 29.866 16.1532 29.9572 16.8623C30.0485 17.5714 29.9866 18.2919 29.7758 18.975C29.5649 19.6582 29.21 20.2882 28.735 20.8225C29.2325 21.525 29.665 22.2775 30.025 23.0675C30.8723 22.302 31.5335 21.3532 31.9584 20.2933C32.3833 19.2335 32.5605 18.0906 32.4767 16.9518C32.3928 15.8131 32.0501 14.7085 31.4746 13.7223C30.899 12.7361 30.1059 11.8944 29.1557 11.2612C28.2055 10.628 27.1232 10.2202 25.9915 10.0688C24.8597 9.91738 23.7083 10.0264 22.6251 10.3875C21.5419 10.7486 20.5554 11.3523 19.7408 12.1525C18.9263 12.9527 18.3053 13.9283 17.925 15.005C18.805 15.0325 19.665 15.1425 20.495 15.3275ZM31.705 25.5125C33.205 26.05 34.5175 26.9875 35.51 28.1925C35.6461 28.0823 35.7575 27.9447 35.8371 27.7886C35.9166 27.6326 35.9624 27.4616 35.9716 27.2867C35.9808 27.1118 35.9531 26.9369 35.8904 26.7734C35.8277 26.6099 35.7313 26.4614 35.6075 26.3375L33.84 24.57C33.6618 24.3907 33.4335 24.2697 33.1851 24.2229C32.9367 24.1761 32.6799 24.2056 32.4487 24.3077C32.2175 24.4098 32.0226 24.5796 31.8898 24.7947C31.7571 25.0098 31.6926 25.26 31.705 25.5125ZM36.25 16.25C35.9185 16.25 35.6006 16.3817 35.3661 16.6161C35.1317 16.8505 35 17.1685 35 17.5C35 17.8315 35.1317 18.1495 35.3661 18.3839C35.6006 18.6183 35.9185 18.75 36.25 18.75H38.75C39.0815 18.75 39.3995 18.6183 39.6339 18.3839C39.8683 18.1495 40 17.8315 40 17.5C40 17.1685 39.8683 16.8505 39.6339 16.6161C39.3995 16.3817 39.0815 16.25 38.75 16.25H36.25Z" fill="white"/>
</g>
<defs>
<clipPath id="clip0_3_1619">
<rect width="40" height="40" fill="white"/>
</clipPath>
</defs>
</svg>
