<svg width="94" height="68" viewBox="0 0 94 68" fill="none" xmlns="http://www.w3.org/2000/svg">
<path d="M0 46.5894C0 50.439 0.956074 54.029 2.86822 57.3163C4.78037 60.6036 7.34439 63.1988 10.6472 65.102C13.95 67.0051 17.5135 68 21.4248 68H68.4028C72.2706 68 75.8776 67.0484 79.1804 65.102C82.4832 63.1556 85.0907 60.5604 87.0028 57.3163C88.9149 54.029 89.9145 50.439 89.9145 46.5894C89.9145 43.8212 89.3061 40.9664 88.0892 37.9387C91.3921 33.9161 93 29.1582 93 23.6649C93 19.5558 92.0005 15.7495 90.0014 12.2892C88.0023 8.82891 85.221 6.06067 81.7444 4.02775C78.2678 1.99482 74.4435 0.999985 70.3149 0.999985C63.8397 0.999985 58.2336 3.5087 53.4967 8.52613C50.1939 6.66622 46.2827 5.71464 41.8065 5.71464C35.679 5.71464 30.2902 7.57455 25.5967 11.3376C20.9033 15.1007 17.9047 19.9019 16.5575 25.8276C11.6902 26.909 7.73551 29.3744 4.65 33.2673C1.56448 37.1601 0 41.6152 0 46.5894ZM7.43131 46.5894C7.43131 42.9993 8.64813 39.8851 11.0383 37.2466C13.472 34.6081 16.514 33.0942 20.1645 32.6617L23.1196 32.5319L23.4238 29.4177C24.0322 24.7463 26.0748 20.8102 29.5514 17.6959C33.028 14.5384 37.1131 12.9813 41.7631 12.9813C46.5 12.9813 50.672 14.5817 54.1921 17.7392C57.7121 20.8967 59.7112 24.7895 60.1892 29.4609L60.6238 32.705H68.3593C72.1836 32.705 75.4864 34.0891 78.2677 36.8141C81.0491 39.539 82.4397 42.8263 82.4397 46.5894C82.4397 50.4822 81.0491 53.8128 78.3112 56.6243C75.5734 59.4357 72.2271 60.8199 68.4028 60.8199H21.4248C17.6439 60.8199 14.3846 59.4357 11.6033 56.6243C8.82196 53.7695 7.43131 50.439 7.43131 46.5894ZM59.7112 12.7217C62.7098 9.867 66.2299 8.43962 70.3149 8.43962C74.6173 8.43962 78.2678 9.91025 81.2664 12.8948C84.265 15.836 85.786 19.4693 85.786 23.7514C85.786 26.4332 85.0472 29.0716 83.5262 31.7101C79.3542 27.5145 74.3131 25.4383 68.3593 25.4383H67.0121C65.8388 20.6372 63.4051 16.3983 59.7112 12.7217Z" fill="white"/>
<path d="M0 46.5894C0 50.439 0.956074 54.029 2.86822 57.3163C4.78037 60.6036 7.34439 63.1988 10.6472 65.102C13.95 67.0051 17.5135 68 21.4248 68H68.4028C72.2706 68 75.8776 67.0484 79.1804 65.102C82.4832 63.1556 85.0907 60.5604 87.0028 57.3163C88.9149 54.029 89.9145 50.439 89.9145 46.5894C89.9145 43.8212 89.3061 40.9664 88.0892 37.9387C91.3921 33.9161 93 29.1582 93 23.6649C93 19.5558 92.0005 15.7495 90.0014 12.2892C88.0023 8.82891 85.221 6.06067 81.7444 4.02775C78.2678 1.99482 74.4435 0.999985 70.3149 0.999985C63.8397 0.999985 58.2336 3.5087 53.4967 8.52613C50.1939 6.66622 46.2827 5.71464 41.8065 5.71464C35.679 5.71464 30.2902 7.57455 25.5967 11.3376C20.9033 15.1007 17.9047 19.9019 16.5575 25.8276C11.6902 26.909 7.73551 29.3744 4.65 33.2673C1.56448 37.1601 0 41.6152 0 46.5894ZM7.43131 46.5894C7.43131 42.9993 8.64813 39.8851 11.0383 37.2466C13.472 34.6081 16.514 33.0942 20.1645 32.6617L23.1196 32.5319L23.4238 29.4177C24.0322 24.7463 26.0748 20.8102 29.5514 17.6959C33.028 14.5384 37.1131 12.9813 41.7631 12.9813C46.5 12.9813 50.672 14.5817 54.1921 17.7392C57.7121 20.8967 59.7112 24.7895 60.1892 29.4609L60.6238 32.705H68.3593C72.1836 32.705 75.4864 34.0891 78.2677 36.8141C81.0491 39.539 82.4397 42.8263 82.4397 46.5894C82.4397 50.4822 81.0491 53.8128 78.3112 56.6243C75.5734 59.4357 72.2271 60.8199 68.4028 60.8199H21.4248C17.6439 60.8199 14.3846 59.4357 11.6033 56.6243C8.82196 53.7695 7.43131 50.439 7.43131 46.5894ZM59.7112 12.7217C62.7098 9.867 66.2299 8.43962 70.3149 8.43962C74.6173 8.43962 78.2678 9.91025 81.2664 12.8948C84.265 15.836 85.786 19.4693 85.786 23.7514C85.786 26.4332 85.0472 29.0716 83.5262 31.7101C79.3542 27.5145 74.3131 25.4383 68.3593 25.4383H67.0121C65.8388 20.6372 63.4051 16.3983 59.7112 12.7217Z" fill="white"/>
<path d="M66.5 25.5C65.3 16.7 57.5 10.5 53.5 8.50001C59.1 2.50002 65.8333 1.00001 68.5 1.00001C76.1 0.600009 81.8333 3.5 83.5 5C86.3333 6.83333 92.2 12.7 93 21.5C93.5 24.8333 93.2 32.8 88 38C87.2 36 84.6667 33.1667 83.5 32C81.5 29.2 78 27.5 76.5 27C72.5 25.4 68 25.3333 66.5 25.5Z" fill="#48484A"/>
</svg>
