<svg width="98" height="68" viewBox="0 0 98 68" fill="none" xmlns="http://www.w3.org/2000/svg">
<path d="M0 44.6279C0 39.2199 1.69779 34.4232 5.09336 30.1909C8.48893 25.9585 12.7806 23.231 18.0154 22.0553C19.4774 15.6127 22.8258 10.3458 27.9663 6.20747C33.1068 2.06916 39.0491 0 45.6988 0C52.2069 0 58.0077 2.02213 63.1011 6.01936C68.1944 10.0166 71.4957 15.1895 73.0048 21.491H74.5611C78.8056 21.491 82.7199 22.5256 86.3041 24.5477C89.8884 26.5698 92.7652 29.3914 94.8402 32.9654C96.9153 36.5394 98 40.3956 98 44.6279C98 48.7662 97.0096 52.6224 95.0289 56.1494C93.0481 59.6763 90.3128 62.4979 86.8701 64.6141C83.4273 66.7303 79.6073 67.8589 75.5043 68H22.6372C16.3176 67.7178 10.9885 65.3195 6.6025 60.805C2.21655 56.3375 0 50.9295 0 44.6279ZM8.06449 44.6279C8.06449 48.7192 9.47931 52.2462 12.309 55.2559C15.1386 58.2656 18.5813 59.8645 22.6372 60.0996H75.41C79.4658 59.9115 82.9086 58.2656 85.7382 55.2559C88.615 52.2462 90.0298 48.6722 90.0298 44.6279C90.0298 40.4896 88.4735 36.9627 85.4081 33.953C82.3426 30.9433 78.7113 29.4384 74.4668 29.4384H66.9211C66.4023 29.4384 66.1193 29.1563 66.1193 28.592L65.7892 25.9115C65.2705 20.8326 63.0539 16.5533 59.1867 13.1203C55.3195 9.68741 50.8393 7.94744 45.6988 7.94744C40.5582 7.94744 36.0308 9.68741 32.2579 13.1203C28.4379 16.5533 26.2685 20.8326 25.7969 25.9115L25.4196 28.592C25.4196 29.1563 25.0895 29.4384 24.4764 29.4384H21.9769C18.0154 29.9087 14.7141 31.6017 12.0731 34.4703C9.43215 37.3389 8.06449 40.7248 8.06449 44.6279Z" fill="white"/>
</svg>
