<svg width="93" height="61" viewBox="0 0 93 61" fill="none" xmlns="http://www.w3.org/2000/svg">
<path d="M0 43.1823C0 39.0318 1.29806 35.3006 3.89419 32.0724C6.49032 28.8443 9.79829 26.7481 13.86 25.8258C14.9487 20.9207 17.4192 16.854 21.3134 13.7517C25.2076 10.6074 29.688 9.05617 34.7965 9.05617C39.7375 9.05617 44.176 10.5654 48.0284 13.6259C51.9226 16.6863 54.4349 20.5853 55.5655 25.3646H56.6961C61.6371 25.3646 65.8244 27.0835 69.2999 30.5632C72.7753 34.0429 74.534 38.2353 74.534 43.1404C74.534 48.0874 72.7753 52.2798 69.2999 55.7595C65.8244 59.2392 61.6371 61 56.6961 61H17.8798C15.4511 61 13.1481 60.5388 10.9707 59.5746C8.79334 58.6103 6.8253 57.4365 5.23413 55.8433C3.64295 54.2502 2.38676 52.3217 1.42368 50.1417C0.460603 47.9616 0 45.572 0 43.1823ZM6.07159 43.1823C6.07159 46.3685 7.24403 49.1355 9.50518 51.3994C11.7663 53.6633 14.5718 54.8372 17.8379 54.8372H56.6961C59.9203 54.8372 62.7258 53.7052 65.0288 51.3994C67.3318 49.0936 68.5043 46.3685 68.5043 43.1823C68.5043 39.9961 67.3737 37.2291 65.0288 34.9652C62.7258 32.7013 59.9622 31.5274 56.6961 31.5274H50.8757C50.457 31.5274 50.2476 31.3178 50.2476 30.8986L49.9545 28.8443C49.5358 24.9034 47.8609 21.5914 44.9716 18.9922C42.0824 16.3929 38.6488 15.0932 34.7127 15.0932C30.7767 15.0932 27.3431 16.3929 24.412 19.0341C21.4809 21.6334 19.8478 24.9454 19.471 28.8443L19.1778 30.6051C19.1778 31.0243 18.9685 31.234 18.5079 31.234L16.6236 31.5274C13.6087 31.779 11.0964 33.0367 9.04457 35.2587C7.11842 37.4806 6.07159 40.1218 6.07159 43.1823ZM43.1292 6.62457C42.7105 7.00189 42.7942 7.29536 43.4223 7.50498C45.2229 8.30153 46.7303 9.05617 47.9446 9.8108C48.4052 9.93657 48.7402 9.89464 48.8658 9.68502C51.4201 7.29536 54.3512 6.07956 57.7429 6.07956C61.1346 6.07956 64.0239 7.21151 66.5362 9.47541C69.0068 11.7393 70.3886 14.5482 70.6817 17.8602L71.0585 20.5433H77.0045C79.7263 20.5433 82.0711 21.5076 84.0392 23.478C86.0072 25.4484 86.9703 27.7543 86.9703 30.4374C86.9703 32.9528 86.091 35.1329 84.3742 37.0195C82.6574 38.906 80.5218 39.9541 77.9676 40.2476C77.5489 40.2476 77.3395 40.4572 77.3395 40.9184V45.6558C77.3395 46.117 77.5489 46.3266 77.9676 46.3266C82.1968 46.0751 85.756 44.3981 88.6452 41.3376C91.5344 38.2772 93 34.6298 93 30.4374C93 25.9935 91.4507 22.2203 88.3102 19.1179C85.1697 15.9736 81.4012 14.4224 77.0045 14.4224H76.3764C75.2877 10.23 72.9847 6.79227 69.4674 4.06721C65.9919 1.34215 62.0558 0.000582311 57.7429 0.000582311C51.8807 -0.0413417 46.9815 2.18063 43.1292 6.62457Z" fill="white"/>
</svg>
