<svg width="40" height="40" viewBox="0 0 40 40" fill="none" xmlns="http://www.w3.org/2000/svg">
<g clip-path="url(#clip0_3_1623)">
<path d="M10.395 30.0625C10.5508 30.1145 10.6949 30.1966 10.8189 30.3043C10.943 30.412 11.0446 30.543 11.118 30.69C11.1914 30.837 11.235 30.997 11.2465 31.1608C11.258 31.3247 11.2371 31.4892 11.185 31.645L9.93499 35.395C9.82119 35.6976 9.59456 35.9444 9.30269 36.0834C9.01082 36.2225 8.67642 36.2431 8.36971 36.1409C8.06299 36.0386 7.80782 35.8215 7.65777 35.5351C7.50772 35.2488 7.47446 34.9154 7.56499 34.605L8.81499 30.855C8.91944 30.5404 9.14458 30.2802 9.44088 30.1316C9.73718 29.9829 10.0804 29.9581 10.395 30.0625ZM17.895 30.0625C18.0508 30.1145 18.1949 30.1966 18.3189 30.3043C18.443 30.412 18.5446 30.543 18.618 30.69C18.6914 30.837 18.735 30.997 18.7465 31.1608C18.758 31.3247 18.7371 31.4892 18.685 31.645L16.185 39.145C16.0712 39.4476 15.8446 39.6944 15.5527 39.8334C15.2608 39.9725 14.9264 39.9931 14.6197 39.8909C14.313 39.7886 14.0578 39.5715 13.9078 39.2851C13.7577 38.9988 13.7245 38.6654 13.815 38.355L16.315 30.855C16.4194 30.5404 16.6446 30.2802 16.9409 30.1316C17.2372 29.9829 17.5804 29.9581 17.895 30.0625ZM25.395 30.0625C25.5508 30.1145 25.6949 30.1966 25.8189 30.3043C25.943 30.412 26.0446 30.543 26.118 30.69C26.1914 30.837 26.235 30.997 26.2465 31.1608C26.258 31.3247 26.2371 31.4892 26.185 31.645L24.935 35.395C24.8212 35.6976 24.5946 35.9444 24.3027 36.0834C24.0108 36.2225 23.6764 36.2431 23.3697 36.1409C23.063 36.0386 22.8078 35.8215 22.6578 35.5351C22.5077 35.2488 22.4745 34.9154 22.565 34.605L23.815 30.855C23.9194 30.5404 24.1446 30.2802 24.4409 30.1316C24.7372 29.9829 25.0804 29.9581 25.395 30.0625ZM32.895 30.0625C33.0508 30.1145 33.1949 30.1966 33.3189 30.3043C33.443 30.412 33.5446 30.543 33.618 30.69C33.6914 30.837 33.735 30.997 33.7465 31.1608C33.758 31.3247 33.7371 31.4892 33.685 31.645L31.185 39.145C31.1379 39.3064 31.0587 39.4567 30.9522 39.5868C30.8457 39.7169 30.7141 39.8242 30.5651 39.9022C30.4162 39.9803 30.253 40.0275 30.0854 40.041C29.9178 40.0545 29.7492 40.034 29.5897 39.9809C29.4302 39.9277 29.283 39.8429 29.1571 39.7315C29.0311 39.6201 28.9289 39.4845 28.8565 39.3327C28.7842 39.1809 28.7433 39.0161 28.7361 38.8481C28.729 38.6801 28.7558 38.5124 28.815 38.355L31.315 30.855C31.4194 30.5404 31.6446 30.2802 31.9409 30.1316C32.2372 29.9829 32.5804 29.9581 32.895 30.0625ZM33.5125 12.5675C32.9933 9.95041 31.6505 7.56803 29.6805 5.7687C27.7104 3.96937 25.2164 2.84747 22.5631 2.56703C19.9098 2.28658 17.2363 2.86231 14.9336 4.21003C12.631 5.55775 10.8198 7.60677 9.76499 10.0575C8.58208 9.92123 7.38381 10.0278 6.24354 10.3708C5.10326 10.7137 4.04498 11.2858 3.13348 12.0519C2.22199 12.8181 1.47646 13.7623 0.942543 14.8266C0.408628 15.8909 0.0975616 17.053 0.0283886 18.2417C-0.0407843 19.4304 0.133392 20.6208 0.540254 21.7398C0.947115 22.8589 1.5781 23.8831 2.39458 24.7498C3.21105 25.6166 4.19584 26.3075 5.28864 26.7804C6.38144 27.2533 7.55926 27.4982 8.74999 27.5H32.5C34.4028 27.5022 36.2352 26.781 37.6262 25.4827C39.0172 24.1843 39.8627 22.4058 39.9914 20.5074C40.1201 18.609 39.5224 16.7326 38.3195 15.2583C37.1165 13.7841 35.3981 12.8222 33.5125 12.5675ZM21.25 5.00001C23.7099 4.99949 26.0837 5.90568 27.9174 7.54529C29.7512 9.1849 30.9163 11.4429 31.19 13.8875C31.224 14.1947 31.3705 14.4783 31.6014 14.6838C31.8322 14.8892 32.131 15.0019 32.44 15H32.5C33.8261 15 35.0978 15.5268 36.0355 16.4645C36.9732 17.4022 37.5 18.6739 37.5 20C37.5 21.3261 36.9732 22.5979 36.0355 23.5355C35.0978 24.4732 33.8261 25 32.5 25H8.74999C7.86517 24.9996 6.99054 24.8113 6.18393 24.4475C5.37733 24.0838 4.65715 23.553 4.07103 22.8901C3.48491 22.2273 3.04621 21.4476 2.78395 20.6025C2.52169 19.7574 2.44185 18.8663 2.54971 17.9881C2.65757 17.1099 2.95067 16.2646 3.40963 15.5081C3.86858 14.7516 4.48293 14.1012 5.21203 13.5999C5.94113 13.0986 6.76836 12.7578 7.63901 12.6001C8.50965 12.4424 9.40386 12.4713 10.2625 12.685C10.5688 12.7614 10.8927 12.7191 11.1691 12.5665C11.4455 12.4139 11.6539 12.1624 11.7525 11.8625C12.4132 9.86544 13.6865 8.12742 15.3915 6.89545C17.0965 5.66349 19.1465 5.00025 21.25 5.00001Z" fill="white"/>
</g>
<defs>
<clipPath id="clip0_3_1623">
<rect width="40" height="40" fill="white"/>
</clipPath>
</defs>
</svg>
