<svg width="114" height="114" viewBox="0 0 114 114" fill="none" xmlns="http://www.w3.org/2000/svg">
<path d="M5.62402 64.144C5.62402 69.236 7.41002 73.606 10.944 77.254C14.478 80.902 18.81 82.84 23.864 83.068C24.32 83.068 24.548 82.84 24.548 82.422V77.33C24.548 76.874 24.32 76.646 23.864 76.646C20.596 76.494 17.822 75.164 15.542 72.732C13.262 70.3 12.122 67.412 12.122 64.144C12.122 60.99 13.186 58.254 15.352 55.898C17.518 53.542 20.178 52.212 23.332 51.832L25.346 51.68C25.84 51.68 26.106 51.452 26.106 50.996L26.372 48.906C26.79 44.802 28.5 41.344 31.578 38.608C34.656 35.834 38.266 34.466 42.446 34.466C46.588 34.466 50.198 35.834 53.314 38.608C56.43 41.382 58.216 44.802 58.634 48.906L58.9 51.11C58.9 51.566 59.128 51.832 59.546 51.832H65.702C69.084 51.832 72.048 53.048 74.518 55.48C76.988 57.912 78.242 60.8 78.242 64.106C78.242 67.412 77.102 70.262 74.784 72.694C72.466 75.126 69.692 76.418 66.462 76.608C65.968 76.608 65.702 76.836 65.702 77.292V82.384C65.702 82.802 65.968 83.03 66.462 83.03C71.554 82.878 75.848 80.94 79.344 77.292C82.878 73.606 84.626 69.236 84.626 64.144C84.626 61.332 84.094 58.786 83.068 56.506C86.07 52.858 87.552 48.64 87.552 43.852C87.552 40.28 86.64 36.936 84.854 33.858C83.03 30.78 80.598 28.348 77.52 26.524C74.442 24.738 71.098 23.826 67.526 23.826C61.598 23.826 56.658 26.03 52.706 30.476C49.666 28.804 46.246 27.968 42.408 27.968C37.05 27.968 32.262 29.64 28.12 32.946C23.978 36.252 21.28 40.546 20.102 45.752C15.884 46.74 12.426 48.944 9.69002 52.364C6.99202 55.86 5.62402 59.774 5.62402 64.144ZM25.916 90.972C26.296 91.808 26.866 92.378 27.664 92.682C28.424 93.062 29.222 93.1 30.058 92.758C30.894 92.454 31.464 91.884 31.768 91.048C32.148 90.212 32.186 89.414 31.844 88.578C31.54 87.78 30.97 87.21 30.134 86.906C29.374 86.488 28.576 86.45 27.778 86.792C26.942 87.134 26.372 87.704 25.992 88.578C25.612 89.262 25.574 90.06 25.916 90.972ZM28.348 80.18C28.348 80.712 28.462 81.206 28.69 81.624C29.412 82.802 30.552 83.372 32.072 83.372C33.288 83.372 34.162 82.536 34.694 80.902L38.646 68.666C38.95 67.754 38.874 66.88 38.38 66.12C37.886 65.36 37.202 64.866 36.29 64.714C35.492 64.524 34.694 64.6 33.934 64.98C33.174 65.398 32.642 66.044 32.376 66.88L28.462 79.116C28.386 79.496 28.348 79.876 28.348 80.18ZM35.454 101.536C35.454 102.03 35.53 102.41 35.644 102.638C35.986 103.474 36.556 104.044 37.354 104.348C37.696 104.538 38.152 104.614 38.684 104.614C38.912 104.614 39.292 104.538 39.824 104.386C40.66 104.082 41.268 103.512 41.61 102.676C41.952 101.84 41.99 101.004 41.61 100.168C41.23 99.332 40.66 98.762 39.9 98.458C39.14 98.154 38.342 98.154 37.544 98.458C36.822 98.724 36.29 99.18 35.948 99.788C35.606 100.396 35.454 101.004 35.454 101.536ZM37.772 17.366C37.772 18.316 38.076 19.076 38.684 19.646L41.154 22.116C41.762 22.724 42.446 23.066 43.206 23.142C44.004 23.256 44.764 22.952 45.524 22.268C46.284 21.584 46.664 20.748 46.664 19.836C46.664 18.924 46.36 18.164 45.752 17.556L43.32 15.124C42.598 14.478 41.838 14.174 40.964 14.174C40.052 14.174 39.254 14.478 38.646 15.086C38.076 15.732 37.772 16.492 37.772 17.366ZM38.228 91.314C38.228 91.922 38.418 92.53 38.836 93.138C39.254 93.746 39.862 94.164 40.66 94.392C41.078 94.468 41.382 94.544 41.572 94.544C42.142 94.544 42.636 94.43 43.016 94.24C43.776 93.936 44.308 93.214 44.65 92.074L51.49 68.742C51.756 67.83 51.68 67.032 51.262 66.272C50.844 65.512 50.236 65.018 49.362 64.79C48.45 64.524 47.614 64.6 46.854 65.018C46.094 65.436 45.562 66.044 45.296 66.956L38.304 90.478C38.266 90.896 38.228 91.2 38.228 91.314ZM51.338 89.832C51.338 90.326 51.414 90.706 51.604 91.01C51.946 91.808 52.516 92.34 53.314 92.682C53.732 92.872 54.15 92.986 54.644 92.986C54.872 92.986 55.252 92.91 55.784 92.758C56.658 92.416 57.228 91.884 57.532 91.086C57.836 90.25 57.836 89.452 57.532 88.692C57.228 87.932 56.696 87.362 55.936 86.982C55.062 86.564 54.264 86.526 53.428 86.868C52.63 87.21 52.022 87.78 51.604 88.654C51.414 88.958 51.338 89.338 51.338 89.832ZM54.074 80.104C54.074 80.712 54.264 81.282 54.644 81.814C55.024 82.384 55.632 82.764 56.392 82.992C56.734 83.068 57.038 83.106 57.342 83.106C58.824 83.106 59.812 82.346 60.344 80.788L64.258 68.704C64.562 67.83 64.448 66.994 63.992 66.234C63.536 65.474 62.89 64.98 62.016 64.752C61.104 64.486 60.306 64.562 59.584 64.98C58.862 65.398 58.368 66.006 58.064 66.918L54.188 79.078C54.15 79.572 54.074 79.914 54.074 80.104ZM58.14 34.2C60.686 31.768 63.84 30.514 67.564 30.514C71.288 30.514 74.442 31.806 77.064 34.428C79.686 37.012 81.016 40.166 81.016 43.89C81.016 46.246 80.37 48.602 79.04 50.92C75.392 47.272 70.984 45.448 65.702 45.448H64.6C63.46 41.04 61.332 37.278 58.14 34.2ZM64.296 14.174C64.296 15.086 64.6 15.846 65.246 16.492C65.892 17.138 66.652 17.442 67.564 17.442C68.438 17.442 69.198 17.138 69.806 16.492C70.414 15.846 70.718 15.086 70.718 14.174V6.346C70.718 5.434 70.414 4.674 69.806 4.028C69.198 3.382 68.476 3.078 67.564 3.078C66.652 3.078 65.892 3.382 65.246 4.028C64.6 4.674 64.296 5.434 64.296 6.346V14.174ZM85.386 22.876C85.386 23.788 85.69 24.548 86.336 25.156C86.906 25.802 87.628 26.144 88.54 26.144C89.414 26.144 90.212 25.802 90.82 25.156L96.292 19.684C96.976 19.114 97.318 18.354 97.318 17.404C97.318 16.492 96.976 15.732 96.33 15.086C95.684 14.44 94.886 14.136 94.012 14.136C93.176 14.136 92.454 14.478 91.846 15.162L86.336 20.596C85.728 21.166 85.386 21.964 85.386 22.876ZM88.464 68.096C88.464 68.97 88.768 69.73 89.376 70.376L91.884 72.77C92.416 73.454 93.176 73.796 94.164 73.796C95.076 73.796 95.798 73.454 96.33 72.77C97.014 72.162 97.356 71.402 97.356 70.49C97.356 69.578 97.014 68.818 96.33 68.172L93.86 65.816C93.252 65.132 92.53 64.828 91.656 64.828C90.782 64.828 90.022 65.132 89.376 65.778C88.768 66.424 88.464 67.222 88.464 68.096ZM94.012 43.89C94.012 44.802 94.354 45.562 95 46.17C95.684 46.854 96.444 47.158 97.356 47.158H105.07C105.982 47.158 106.742 46.854 107.388 46.208C108.034 45.562 108.376 44.802 108.376 43.89C108.376 43.016 108.072 42.256 107.426 41.648C106.78 41.04 105.982 40.736 105.07 40.736H97.356C96.406 40.736 95.608 41.04 94.962 41.648C94.354 42.256 94.012 43.016 94.012 43.89Z" fill="white"/>
</svg>
