<svg width="94" height="92" viewBox="0 0 94 92" fill="none" xmlns="http://www.w3.org/2000/svg">
<path d="M0 46.4785C0 52.2063 1.98792 57.159 6.00697 61.2504C10.026 65.3848 14.9094 67.5812 20.7003 67.8826C21.2189 67.8826 21.4782 67.6242 21.4782 67.1074V61.3796C21.4782 60.8628 21.2189 60.6044 20.7003 60.6044C16.9837 60.4321 13.8722 58.9678 11.2793 56.2115C8.68634 53.4553 7.38987 50.2253 7.38987 46.4785C7.38987 42.9039 8.59991 39.8031 11.02 37.133C13.4401 34.5059 16.4651 32.9555 20.0953 32.5248L22.3425 32.2234C22.9043 32.2234 23.2068 31.965 23.2068 31.4482L23.5525 29.2518C24.0279 24.6006 25.9726 20.6815 29.473 17.5807C32.9735 14.4368 37.079 12.8864 41.7895 12.8864C46.5 12.8864 50.6055 14.4799 54.1492 17.6238C57.6928 20.7676 59.6808 24.6436 60.1994 29.2948L60.5019 31.7927C60.5019 32.3095 60.7612 32.5679 61.2797 32.5679H68.2807C72.2133 32.5679 75.5409 33.946 78.3067 36.6593C81.0725 39.3725 82.4554 42.6455 82.4554 46.5215C82.4554 50.2683 81.1589 53.4983 78.566 56.2546C75.973 59.0109 72.8183 60.4752 69.145 60.6474C68.5832 60.6474 68.3239 60.9058 68.3239 61.4226V67.1505C68.3239 67.6673 68.5832 67.9257 69.145 67.9257C72.948 67.7965 76.4052 66.7629 79.5599 64.8249C82.7147 62.8869 85.2212 60.3029 87.0362 57.0729C88.8513 53.8429 89.7588 50.3114 89.7588 46.5646C89.7588 43.3777 89.1538 40.4922 87.9006 37.9082C91.3146 33.7738 93 29.0364 93 23.61C93 19.5618 91.9628 15.7719 89.9317 12.3266C87.9006 8.83815 85.1348 6.08187 81.6343 4.05774C78.1338 2.0336 74.3741 1 70.3118 1C63.5702 1 57.9954 3.49787 53.5441 8.45055C50.0005 6.55561 46.1111 5.60814 41.8327 5.60814C35.7393 5.60814 30.2941 7.50308 25.5836 11.293C20.8731 15.0828 17.8048 19.9063 16.4652 25.7634C11.7114 26.8831 7.77881 29.381 4.66729 33.257C1.55576 37.0899 0 41.5258 0 46.4785ZM23.2068 76.539C23.5957 77.4865 24.244 78.1325 25.1947 78.5201C26.059 78.9508 26.9665 78.9939 27.8741 78.6063C28.8248 78.2617 29.4298 77.6157 29.8188 76.6682C30.2077 75.7208 30.2077 74.7733 29.862 73.8689C29.5163 72.9214 28.868 72.2754 27.9605 71.8448C27.0962 71.5002 26.2319 71.5002 25.3243 71.8878C24.4168 72.2754 23.7686 72.8784 23.3364 73.7397C22.8611 74.4718 22.8178 75.4193 23.2068 76.539ZM25.9294 64.3512C25.9294 65.0402 26.1454 65.6862 26.5776 66.3322C27.0098 66.9782 27.7012 67.4089 28.5655 67.6673C29.5163 67.9688 30.467 67.8826 31.3745 67.4089C32.2821 66.9352 32.8871 66.16 33.2328 65.0402L37.4679 51.6465C37.7704 50.6129 37.684 49.6223 37.1222 48.761C36.6036 47.8997 35.7825 47.3398 34.7454 47.1245C33.7946 46.823 32.8871 46.9091 32.066 47.3829C31.2017 47.8566 30.6399 48.5887 30.3374 49.5362L26.0158 63.2314L25.9294 64.3512ZM33.9675 88.4685C33.9675 88.77 34.0539 89.2007 34.2268 89.7175C34.6157 90.6649 35.3072 91.354 36.2147 91.6555C36.5604 91.8708 37.0358 92 37.6408 92C37.9001 92 38.3323 91.9139 38.9373 91.7416C39.888 91.3971 40.5795 90.7511 40.9684 89.8036C41.4006 88.8561 41.4006 87.9087 40.9684 86.9612C40.5362 86.0137 39.888 85.3677 39.0237 84.9801C38.1594 84.5925 37.2519 84.5925 36.3443 84.9371C35.5232 85.2816 34.9182 85.7984 34.5293 86.4875C34.1403 87.1765 33.9675 87.8225 33.9675 88.4685ZM37.1654 76.9697C37.1654 77.7449 37.3815 78.3909 37.8137 79.0369C38.2458 79.6399 38.9373 80.0705 39.888 80.2428C39.9744 80.2428 40.1473 80.2859 40.3634 80.3289C40.5795 80.372 40.7955 80.4151 40.9252 80.4151C42.7835 80.2859 43.9503 79.3814 44.4256 77.7449L52.0316 51.6034C52.3341 50.5698 52.2477 49.6223 51.7723 48.8041C51.2969 47.9858 50.5623 47.4259 49.6115 47.1245C48.6176 46.823 47.6668 46.9091 46.8025 47.3829C45.9382 47.8566 45.3764 48.5887 45.0739 49.5362L37.2951 75.6777C37.2951 75.7638 37.2951 75.9361 37.2519 76.1084C37.2086 76.2806 37.2086 76.4529 37.2086 76.5821C37.1654 76.7544 37.1654 76.8836 37.1654 76.9697ZM52.0316 75.247C52.0316 75.6777 52.118 76.1514 52.2477 76.6252C52.5934 77.5296 53.2416 78.1756 54.2356 78.5201C54.6245 78.6924 55.1431 78.8216 55.7914 78.8216C56.3099 78.8216 56.7421 78.7354 57.0446 78.5632C58.0386 78.1756 58.6868 77.5726 59.0325 76.7113C59.3783 75.7638 59.3783 74.8594 59.0325 73.912C58.6868 73.0076 58.0818 72.3185 57.2175 71.8448C56.2667 71.5002 55.316 71.5002 54.4085 71.8878C53.4577 72.2754 52.8095 72.8784 52.3773 73.7397C52.1612 74.2134 52.0316 74.6872 52.0316 75.247ZM55.1431 64.3081C55.1431 65.8585 56.0506 66.9352 57.8225 67.5381C58.4275 67.7104 58.8597 67.7965 59.119 67.7965C59.6375 67.7965 60.1129 67.6673 60.5883 67.452C61.323 67.0644 61.928 66.2892 62.3169 65.0833L66.552 51.6895C66.8978 50.699 66.7681 49.7515 66.2928 48.9333C65.7742 48.0719 65.0395 47.5121 64.0888 47.2106C63.0948 46.9091 62.1873 46.9953 61.323 47.469C60.5019 47.9427 59.8968 48.6749 59.5943 49.6223L55.3592 63.1022C55.1863 63.7913 55.1431 64.222 55.1431 64.3081ZM59.5943 12.585C62.5762 9.74255 66.1199 8.32134 70.3118 8.32134C74.5037 8.32134 78.1338 9.82868 81.1157 12.8003C84.0976 15.7719 85.6101 19.3895 85.6101 23.567C85.6101 26.2371 84.8755 28.8642 83.3629 31.4912C79.1278 27.2707 74.1148 25.1604 68.2807 25.1604H66.8546C65.5149 20.1647 63.0948 15.9872 59.5943 12.585Z" fill="white"/>
<path d="M67 25.5C65.4 15.1 57.3333 9.83333 53.5 8.49999C59.1 2.09999 67.5 0.833327 71 0.999994C81.4 1.39999 88.6667 10.1667 91 14.5C95.4 24.1 90.8333 34.1667 88 38C82.4 26.4 71.6667 24.8333 67 25.5Z" fill="#48484A" stroke="#48484A"/>
</svg>
