<svg width="81" height="81" viewBox="0 0 81 81" fill="none" xmlns="http://www.w3.org/2000/svg">
<path d="M62.9016 15.3141C58.8516 7.46719 50.625 2.53125 41.7656 2.53125C30.8812 2.53125 21.2625 10.125 18.6047 20.3766C17.8453 20.3766 17.2125 20.25 16.4531 20.25C7.34063 20.25 0 27.7172 0 36.7031C0 45.6891 7.34063 53.1562 16.4531 53.1562H27.8438C29.2359 53.1562 30.375 52.0172 30.375 50.625C30.375 49.2328 29.2359 48.0938 27.8438 48.0938H16.4531C10.125 48.0938 5.0625 43.0312 5.0625 36.7031C5.0625 30.375 10.125 25.3125 16.4531 25.3125C17.5922 25.3125 18.7313 25.4391 19.7438 25.8187L22.5281 26.7047L22.9078 23.7937C24.4266 14.5547 32.4 7.59375 41.7656 7.59375C49.2328 7.59375 56.0672 12.0234 59.1047 18.8578L59.8641 20.3766L61.8891 20.25C62.0156 20.25 62.0156 20.25 62.1422 20.25C69.8625 20.25 76.0641 26.4516 76.0641 34.1719C76.0641 41.8922 69.8625 48.0938 62.2688 48.0938H53.1562C51.7641 48.0938 50.625 49.2328 50.625 50.625C50.625 52.0172 51.7641 53.1562 53.1562 53.1562H62.0156C72.5203 53.1562 81 44.6766 81 34.1719C81 24.0469 73.0266 15.8203 62.9016 15.3141Z" fill="white"/>
<path d="M10.6312 72.9C11.1375 73.2797 11.6438 73.4063 12.15 73.4063C12.9094 73.4063 13.6687 73.0266 14.175 72.3938L22.275 62.2688C23.1609 61.1297 22.9078 59.6109 21.8953 58.725C20.7562 57.8391 19.2375 58.0922 18.3516 59.1047L10.2516 69.2297C9.36563 70.4953 9.49219 72.0141 10.6312 72.9Z" fill="white"/>
<path d="M47.0812 43.0313C45.9421 42.1453 44.4234 42.2719 43.5375 43.4109L27.5906 63.2813H37.7156L28.8562 74.2922C27.9703 75.4313 28.0968 76.95 29.2359 77.8359C29.7421 78.2156 30.2484 78.3422 30.7546 78.3422C31.514 78.3422 32.2734 77.9625 32.7796 77.4563L48.3468 58.2188H38.2218L47.5875 46.575C48.4734 45.4359 48.2203 43.9172 47.0812 43.0313Z" fill="white"/>
<path d="M52.65 73.4063C53.4094 73.4063 54.1688 73.0266 54.675 72.3938L62.775 62.3953C63.6609 61.2563 63.5344 59.7375 62.3953 58.8516C61.2563 57.9656 59.7375 58.0922 58.8516 59.2313L50.7516 69.2297C49.8656 70.3688 49.9922 71.8875 51.1313 72.7734C51.6375 73.1531 52.1437 73.4063 52.65 73.4063Z" fill="white"/>
</svg>
