<svg width="87" height="87" viewBox="0 0 87 87" fill="none" xmlns="http://www.w3.org/2000/svg">
<path d="M0 43.5865C0 42.4911 0.404113 41.5109 1.15461 40.7038C1.90511 39.8966 2.8288 39.493 3.92568 39.493C5.02256 39.493 6.00398 39.8966 6.75448 40.7038C7.50498 41.5109 7.90909 42.4334 7.90909 43.5865C7.90909 44.6819 7.50498 45.6044 6.75448 46.3539C6.00398 47.1034 5.02256 47.507 3.98341 47.507C2.94426 47.507 1.96284 47.1034 1.21234 46.3539C0.346384 45.5467 0 44.6243 0 43.5865ZM11.4307 43.5865C11.4307 42.4911 11.8348 41.5109 12.5853 40.7038C13.3358 39.8966 14.2595 39.493 15.3563 39.493H34.0033L20.8407 26.3479C20.0325 25.6561 19.6284 24.7336 19.6284 23.6382C19.6284 22.5427 20.0325 21.6203 20.8407 20.8131C21.649 20.006 22.5727 19.6024 23.6695 19.6024C24.7664 19.6024 25.6901 20.006 26.4983 20.8131L39.6032 33.9006V15.3936C39.6032 14.2982 40.0073 13.3181 40.8155 12.5109C41.6238 11.7038 42.5474 11.3002 43.7021 11.3002C44.7989 11.3002 45.7226 11.7038 46.4731 12.5109C47.2236 13.3181 47.6277 14.2406 47.6277 15.3936V34.0159L60.848 20.7555C61.6563 19.9483 62.58 19.5447 63.6191 19.5447C64.6583 19.5447 65.6397 19.9483 66.4479 20.7555C67.1407 21.5626 67.4871 22.4851 67.4871 23.5805C67.4871 24.6759 67.1407 25.5984 66.4479 26.2903L53.2853 39.4354H71.9323C72.9715 39.4354 73.8952 39.839 74.6456 40.6461C75.3961 41.4533 75.8003 42.3757 75.8003 43.5288C75.8003 44.5666 75.3961 45.4891 74.6456 46.2386C73.8952 46.9881 72.9715 47.3916 71.9323 47.3916H53.2853L66.5056 60.5944C67.1984 61.2863 67.5448 62.2087 67.5448 63.3042C67.5448 64.3996 67.1984 65.3221 66.5056 66.1292C65.6974 66.9364 64.716 67.34 63.6768 67.34C62.6377 67.34 61.6563 66.9364 60.9058 66.1292L47.6855 52.8688V71.5487C47.6855 72.6441 47.2814 73.6243 46.5309 74.3738C45.7804 75.1233 44.8567 75.5268 43.7598 75.5268C42.6629 75.5268 41.6815 75.1233 40.8733 74.3738C40.065 73.6243 39.6609 72.6441 39.6609 71.5487V52.9841L26.5561 66.0716C25.7478 66.8787 24.8242 67.2823 23.7273 67.2823C22.6304 67.2823 21.7067 66.8787 20.8985 66.0716C20.0902 65.2644 19.6861 64.3419 19.6861 63.2465C19.6861 62.1511 20.0902 61.2863 20.8985 60.5368L34.1765 47.334H15.4718C14.3749 47.334 13.4512 46.9304 12.7007 46.1809C11.777 45.5467 11.4307 44.6243 11.4307 43.5865ZM11.4884 71.4911C11.4884 70.4533 11.8925 69.4732 12.7007 68.7237C13.3935 67.9165 14.3172 67.5129 15.4141 67.5129C16.5109 67.5129 17.4346 67.9165 18.2429 68.7237C19.0511 69.5308 19.4552 70.4533 19.4552 71.4911C19.4552 72.5288 19.0511 73.5089 18.2429 74.2584C17.4346 75.0656 16.5109 75.4692 15.4141 75.4692C14.3172 75.4692 13.3935 75.0656 12.7007 74.2584C11.8925 73.5089 11.4884 72.5865 11.4884 71.4911ZM11.4884 15.5089C11.4884 14.4712 11.8925 13.4911 12.7007 12.7416C13.3935 11.9344 14.3172 11.5308 15.4141 11.5308C16.5109 11.5308 17.4346 11.9344 18.2429 12.7416C19.0511 13.5487 19.4552 14.4712 19.4552 15.5089C19.4552 16.5467 19.0511 17.5268 18.2429 18.334C17.4346 19.1412 16.5109 19.5447 15.4141 19.5447C14.3172 19.5447 13.3935 19.1412 12.7007 18.334C11.8925 17.5268 11.4884 16.5467 11.4884 15.5089ZM39.4877 83.0219C39.4877 81.9841 39.8918 81.0616 40.7001 80.3121C41.5083 79.5626 42.432 79.159 43.5866 79.159C44.6835 79.159 45.6072 79.5626 46.3577 80.3121C47.1082 81.0616 47.5123 81.9841 47.5123 83.0219C47.5123 84.1173 47.1082 85.0974 46.3577 85.8469C45.6072 86.5964 44.6835 87 43.5866 87C42.4897 87 41.5083 86.5964 40.7001 85.8469C39.8918 85.0974 39.4877 84.1749 39.4877 83.0219ZM39.4877 3.97813C39.4877 2.8827 39.8918 1.90259 40.7001 1.15308C41.5083 0.40358 42.432 0 43.5866 0C44.6835 0 45.6072 0.40358 46.3577 1.15308C47.1082 1.90259 47.5123 2.8827 47.5123 3.97813C47.5123 5.0159 47.1082 5.93837 46.3577 6.68787C45.6072 7.43738 44.6835 7.84096 43.5866 7.84096C42.4897 7.84096 41.5083 7.43738 40.7001 6.68787C39.8918 5.93837 39.4877 5.0159 39.4877 3.97813ZM67.6025 71.4911C67.6025 70.4533 68.0066 69.4732 68.8149 68.7237C69.5076 67.9165 70.4313 67.5129 71.5282 67.5129C72.6251 67.5129 73.5488 67.9165 74.357 68.7237C75.1652 69.5308 75.5693 70.4533 75.5693 71.4911C75.5693 72.5288 75.1652 73.5089 74.357 74.2584C73.5488 75.0656 72.6251 75.4692 71.5282 75.4692C70.4313 75.4692 69.5076 75.0656 68.8149 74.2584C68.0066 73.5089 67.6025 72.5865 67.6025 71.4911ZM67.6025 15.5089C67.6025 14.4712 68.0066 13.4911 68.8149 12.7416C69.5076 11.9344 70.4313 11.5308 71.5282 11.5308C72.6251 11.5308 73.5488 11.9344 74.357 12.7416C75.1652 13.5487 75.5693 14.4712 75.5693 15.5089C75.5693 16.5467 75.1652 17.5268 74.357 18.334C73.5488 19.1412 72.6251 19.5447 71.5282 19.5447C70.4313 19.5447 69.5076 19.1412 68.8149 18.334C68.0066 17.5268 67.6025 16.5467 67.6025 15.5089ZM79.1486 43.5865C79.1486 42.4911 79.5528 41.5109 80.3033 40.7038C81.0538 39.8966 82.0352 39.493 83.1321 39.493C84.1712 39.493 85.0949 39.8966 85.8454 40.7038C86.5959 41.5109 87 42.4334 87 43.5865C87 44.6243 86.5959 45.5467 85.8454 46.2962C85.0949 47.0457 84.1712 47.4493 83.1321 47.4493C82.0352 47.4493 81.0538 47.0457 80.3033 46.2962C79.5528 45.5467 79.1486 44.6243 79.1486 43.5865Z" fill="white"/>
</svg>
