<svg width="20" height="20" viewBox="0 0 20 20" fill="none" xmlns="http://www.w3.org/2000/svg">
<path fill-rule="evenodd" clip-rule="evenodd" d="M6.04167 8.33333C6.04167 6.1472 7.81387 4.375 10 4.375C12.1861 4.375 13.9583 6.1472 13.9583 8.33333C13.9583 10.5195 12.1861 12.2917 10 12.2917C7.81387 12.2917 6.04167 10.5195 6.04167 8.33333ZM10 5.625C8.50423 5.625 7.29167 6.83756 7.29167 8.33333C7.29167 9.8291 8.50423 11.0417 10 11.0417C11.4958 11.0417 12.7083 9.8291 12.7083 8.33333C12.7083 6.83756 11.4958 5.625 10 5.625Z" fill="white"/>
<path fill-rule="evenodd" clip-rule="evenodd" d="M2.93697 7.38071C3.23224 3.79853 6.2257 1.04166 9.82003 1.04166H10.18C13.7743 1.04166 16.7678 3.79853 17.063 7.38071C17.2216 9.305 16.6272 11.2157 15.405 12.7105L11.4108 17.5953C10.6816 18.487 9.31836 18.4871 8.58919 17.5953L4.59497 12.7105C3.37275 11.2157 2.77835 9.305 2.93697 7.38071ZM9.82003 2.29166C6.87624 2.29166 4.42457 4.54956 4.18274 7.4834C4.05073 9.08493 4.54544 10.6752 5.56265 11.9192L9.55687 16.804C9.7859 17.0841 10.2141 17.0841 10.4431 16.804L14.4373 11.9192C15.4546 10.6752 15.9493 9.08493 15.8173 7.4834C15.5754 4.54956 13.1238 2.29166 10.18 2.29166H9.82003Z" fill="white"/>
</svg>
